<?xml version="1.0"?>
<svg xmlns="http://www.w3.org/2000/svg" xmlns:xlink="http://www.w3.org/1999/xlink" version="1.1" viewBox="0 0 192 192" width="50px" height="50px"><g fill="none" fill-rule="nonzero" stroke="none" stroke-width="1" stroke-linecap="butt" stroke-linejoin="miter" stroke-miterlimit="10" stroke-dasharray="" stroke-dashoffset="0" font-family="none" font-weight="none" font-size="none" text-anchor="none" style="mix-blend-mode: normal"><path d="M0,192v-192h192v192z" fill="none"/><g fill="#ffffff"><g id="surface1"><path d="M19.14,19.2c-6.285,0 -11.46,5.175 -11.46,11.46v130.68c0,6.285 5.175,11.46 11.46,11.46h153.72c6.285,0 11.46,-5.175 11.46,-11.46v-130.68c0,-6.285 -5.175,-11.46 -11.46,-11.46zM19.14,26.88h153.72c2.13,0 3.78,1.65 3.78,3.78v11.58h-161.28v-11.58c0,-2.13 1.65,-3.78 3.78,-3.78zM26.88,30.72c-2.115,0 -3.84,1.725 -3.84,3.84c0,2.115 1.725,3.84 3.84,3.84c2.115,0 3.84,-1.725 3.84,-3.84c0,-2.115 -1.725,-3.84 -3.84,-3.84zM38.4,30.72c-2.115,0 -3.84,1.725 -3.84,3.84c0,2.115 1.725,3.84 3.84,3.84c2.115,0 3.84,-1.725 3.84,-3.84c0,-2.115 -1.725,-3.84 -3.84,-3.84zM15.36,49.92h161.28v53.76h-161.28zM15.36,111.36h76.8v53.76h-73.02c-2.13,0 -3.78,-1.65 -3.78,-3.78zM99.84,111.36h76.8v49.98c0,2.13 -1.65,3.78 -3.78,3.78h-73.02zM23.04,119.04v7.68h61.44v-7.68zM23.04,134.4v7.68h61.44v-7.68zM23.04,149.76v7.68h34.56v-7.68z"/></g></g></g></svg>
