<?xml version="1.0"?>
<svg xmlns="http://www.w3.org/2000/svg" xmlns:xlink="http://www.w3.org/1999/xlink" version="1.1" viewBox="0 0 192 192" width="50px" height="50px"><g fill="none" fill-rule="nonzero" stroke="none" stroke-width="1" stroke-linecap="butt" stroke-linejoin="miter" stroke-miterlimit="10" stroke-dasharray="" stroke-dashoffset="0" font-family="none" font-weight="none" font-size="none" text-anchor="none" style="mix-blend-mode: normal"><path d="M0,192v-192h192v192z" fill="none"/><g fill="#ffffff"><g id="surface1"><path d="M19.2,7.68c-6.315,0 -11.52,5.205 -11.52,11.52v115.2c0,6.315 5.205,11.52 11.52,11.52h53.76v7.68h-34.56c-0.12,0 -0.24,0 -0.36,0c-1.035,0.105 -1.995,0.615 -2.64,1.44l-19.2,23.04c-0.93,1.155 -1.11,2.73 -0.465,4.065c0.645,1.335 1.995,2.175 3.465,2.175h153.6c1.47,0 2.82,-0.84 3.465,-2.175c0.645,-1.335 0.465,-2.91 -0.465,-4.065l-19.2,-23.04c-0.735,-0.915 -1.83,-1.44 -3,-1.44h-34.56v-7.68h53.76c6.315,0 11.52,-5.205 11.52,-11.52v-115.2c0,-6.315 -5.205,-11.52 -11.52,-11.52zM19.2,15.36h153.6c2.13,0 3.84,1.71 3.84,3.84v115.2c0,2.13 -1.71,3.84 -3.84,3.84h-153.6c-2.13,0 -3.84,-1.71 -3.84,-3.84v-115.2c0,-2.13 1.71,-3.84 3.84,-3.84zM23.04,23.04v107.52h145.92v-107.52zM30.72,30.72h130.56v92.16h-130.56zM74.04,43.32l-30.72,30.72l-2.64,2.76l2.64,2.76l30.72,30.72l5.52,-5.52l-27.96,-27.96l27.96,-27.96zM117.96,43.32l-5.52,5.52l27.96,27.96l-27.96,27.96l5.52,5.52l30.72,-30.72l2.64,-2.76l-2.64,-2.76zM80.64,145.92h30.72v15.36h-30.72zM40.2,161.28h32.76v7.68h46.08v-7.68h32.76l12.84,15.36h-137.28z"/></g></g></g></svg>
